# xmcd CD database file
#
# Track frame offsets:
#	150
#	2645
#	29260
#	52240
#	78787
#	102152
#	123812
#	147607
#	170200
#	190087
#	215617
#	240372
#	259665
#	288747
#	322400
#
# Disc length: 4578 seconds
#
# Revision: 1
# Processed by: cddbd v1.5.1PL0 Copyright (c) Steve Scherf et al.
# Submitted via: CDex 1.51
#
DISCID=de11e00f
DTITLE=大黒摩季 - HAPPINESS
DYEAR=2005
DGENRE=J-Pop
TTITLE0=Interlude "Hey! Baby"
TTITLE1=THE END
TTITLE2=Do it for me 〜残照〜
TTITLE3=LIFE〜episode I〜誕生〜
TTITLE4=負け犬のSHOUT!!
TTITLE5=南風に乗って
TTITLE6=後遺症
TTITLE7=PRECIOUS PLEASURES
TTITLE8=黄昏
TTITLE9=瞬く星のように
TTITLE10=OVER TOP
TTITLE11=リーマンブルース
TTITLE12=Happiness
TTITLE13=ASAHI 〜SHINE and GROOVE〜
TTITLE14=DATA
EXTD=YEAR: 2005
EXTT0=
EXTT1=
EXTT2=
EXTT3=
EXTT4=
EXTT5=
EXTT6=
EXTT7=
EXTT8=
EXTT9=
EXTT10=
EXTT11=
EXTT12=
EXTT13=
EXTT14=
PLAYORDER=
